<svg xmlns="http://www.w3.org/2000/svg" version="1.1" xmlns:xlink="http://www.w3.org/1999/xlink" xmlns:svgjs="http://svgjs.com/svgjs" id="Pattern1006SvgRootPreview" width="100%" height="100%"><defs><pattern x="0" y="0" width="1" height="1" patternUnits="userSpaceOnUse" id="Pattern1006Layer1"><g id="PatternRootContent1"><g id="Pattern1006Layer1background"><rect width="1" height="1" id="Pattern1006Background1" class="color_1 fill_color_1" fill="#c1d9c9"></rect></g></g></pattern><pattern x="0" y="0" width="63.00000000000001" height="108.31578947368422" patternUnits="userSpaceOnUse" id="Pattern1006Layer2" patternTransform="matrix(1,0,0,1,0,0)" viewBox="0 0 63.00000000000001 108.31578947368422" preserveAspectRatio="xMidYMid slice"><g id="PatternRootContent2" transform="scale(1.105263157894737) rotate(0)"><g id="Pattern1006Layer2Element3"><use xlink:href="#Pattern1006Element3" x="18.0108642578125" y="-58.5" transform="translate(57, -24.5) scale(1) translate(-57, 24.5) rotate(90, 57, -24.5)"></use><use xlink:href="#Pattern1006Element3" x="-38.9891357421875" y="-58.5" transform="translate(0, -24.5) scale(1) translate(0, 24.5) rotate(90, 0, -24.5)"></use><use xlink:href="#Pattern1006Element3" x="-10.4891357421875" y="-9.5" transform="translate(28.5, 24.5) scale(1) translate(-28.5, -24.5) rotate(90, 28.5, 24.5)"></use><use xlink:href="#Pattern1006Element3" x="-67.4891357421875" y="-9.5" transform="translate(-28.5, 24.5) scale(1) translate(28.5, -24.5) rotate(90, -28.5, 24.5)"></use><use xlink:href="#Pattern1006Element3" x="46.5108642578125" y="-9.5" transform="translate(85.5, 24.5) scale(1) translate(-85.5, -24.5) rotate(90, 85.5, 24.5)"></use><use xlink:href="#Pattern1006Element3" x="18.0108642578125" y="39.5" transform="translate(57, 73.5) scale(1) translate(-57, -73.5) rotate(90, 57, 73.5)"></use><use xlink:href="#Pattern1006Element3" x="-38.9891357421875" y="39.5" transform="translate(0, 73.5) scale(1) translate(0, -73.5) rotate(90, 0, 73.5)"></use><use xlink:href="#Pattern1006Element3" x="-10.4891357421875" y="88.5" transform="translate(28.5, 122.5) scale(1) translate(-28.5, -122.5) rotate(90, 28.5, 122.5)"></use><use xlink:href="#Pattern1006Element3" x="-10.4891357421875" y="88.5" transform="translate(28.5, 122.5) scale(1) translate(-28.5, -122.5) rotate(90, 28.5, 122.5)"></use></g></g></pattern><symbol id="Pattern1006Element3"><g class="color_4 fill_color_4" fill="#f2f2f2"><g><path d="M35.989,34.93782043457031l0,18l2,0L37.989,34.93782043457031l-2,0Zm-4,0l0,18l2,0L33.989,34.93782043457031l-2,0Zm8,0l0,18L41.989,52.93782043457031L41.989,34.93782043457031l-2,0Zm6,0l-2,0l0,18L45.989,52.93782043457031L45.989,34.93782043457031Z"></path><path d="M56.078,59.339744567871094l-15.589,-9l-1,1.732L55.078,61.07179641723633l1,-1.732Zm2,-3.464l-15.588,-9l-1,1.732L57.078,57.60769271850586l1,-1.732Zm-4,6.928l-15.588,-9L37.489,55.53589630126953L53.078,64.53589630126953l1,-1.732Zm-3,5.196l1,-1.732l-15.588,-9L35.489,59L51.078,68Z"></path><path d="M24.901,64.53589630126953l15.588,-9l-1,-1.732L23.901,62.80384826660156l1,1.732Zm2,3.464l15.588,-9l-1,-1.732L25.901,66.26795196533203l1,1.732Zm-4,-6.928l15.588,-9L37.489,50.339744567871094L21.901,59.339744567871094l1,1.732Zm-3,-5.196l1,1.732l15.588,-9L35.489,46.87564468383789L19.901,55.87564468383789Z"></path></g><g><path d="M36.677,31.870439529418945l-15.589,9l1,1.732L37.677,33.60248947143555l-1,-1.732Zm-2,-3.464l-15.588,9l1,1.732L35.677,30.138389587402344l-1,-1.732Zm4,6.928l-15.588,9L24.088,46.066593170166016L39.677,37.066593170166016l-1,-1.732Zm3,5.196l-1,-1.732l-15.588,9L26.088,49.53069305419922L41.677,40.53069305419922Z"></path><path d="M25.589,61.46898651123047l-0.001,-18l-2,0L23.589,61.46898651123047l2,0Zm3.999,0l0,-18l-2,0L27.589,61.46898651123047l2,0Zm-8,0l0,-18L19.588,43.4685173034668L19.589,61.46898651123047l2,0Zm-6,0l2,0l0,-18L15.588,43.4685173034668L15.589,61.46898651123047Z"></path><path d="M5.5,37.066986083984375l15.588,9l1,-1.732L6.5,35.334938049316406l-1,1.732Zm-2,3.464l15.588,9l1,-1.732L4.5,38.79903793334961l-1,1.732Zm4,-6.928l15.588,9L24.088,40.87044143676758L8.5,31.87083625793457l-1,1.732Zm3,-5.196l-1,1.732l15.588,9L26.088,37.40633773803711L10.5,28.406734466552734Z"></path></g><g><path d="M39.677,30.932619094848633l-15.588,-9l-1,1.732L38.677,32.664669036865234l1,-1.732Zm2,-3.464l-15.588,-9l-1,1.732L40.677,29.20056915283203l1,-1.732Zm-4,6.928l-15.588,-9L21.089,27.12877082824707L36.677,36.1287727355957l1,-1.732Zm-3,5.196l1,-1.732l-15.588,-9L19.089,30.592872619628906L34.677,39.592872619628906Z"></path><path d="M8.5,36.129241943359375l15.589,-9l-1,-1.732L7.5,34.39719009399414l1,1.732Zm2,3.464l15.588,-9l-1,-1.732L9.5,37.86129379272461l1,1.732Zm-4,-6.928l15.588,-9L21.089,21.932619094848633L5.5,30.933088302612305l1,1.732Zm-3,-5.196l1,1.732l15.588,-9L19.089,18.46851921081543L3.5,27.4689884185791Z"></path><path d="M19.589,6.531091213226318l0,18l2,0L21.589,6.53109073638916l-2,0Zm-4,0l0,18l2,0L17.589,6.53109073638916l-2,0Zm8,0l0,18L25.589,24.53069496154785L25.589,6.53109073638916l-2,0Zm6,0l-2,0l0,18L29.589,24.530696868896484L29.589,6.53109073638916Z"></path></g><g><path d="M41.99,33.06217956542969l0,-18l-2,0L39.99,33.06217956542969l2,0Zm4,0l0,-18l-2,0L43.99,33.06217956542969l2,0Zm-8,0l0,-18L35.99,15.062179565429688L35.99,33.06217956542969l2,0Zm-6,0l2,0l0,-18L31.99,15.062179565429688L31.99,33.06217956542969Z"></path><path d="M21.901,8.660257339477539l15.589,9l1,-1.732L22.901,6.928205490112305l-1,1.732Zm-2,3.464l15.588,9l1,-1.732L20.901,10.39230728149414l-1,1.732Zm4,-6.928l15.588,9L40.49,12.464103698730469L24.901,3.4641036987304688l-1,1.732Zm3,-5.196l-1,1.732l15.588,9L42.49,9.000001907348633L26.901,0Z"></path><path d="M53.078,3.4641036987304688l-15.588,9l1,1.732L54.078,5.19615364074707l-1,-1.732Zm-2,-3.464l-15.588,9l1,1.732L52.078,1.7320518493652344l-1,-1.732Zm4,6.928l-15.588,9L40.49,17.660255432128906L56.078,8.660255432128906l-1,-1.732Zm3,5.196l-1,-1.732l-15.588,9L42.49,21.124357223510742L58.078,12.124357223510742Z"></path></g><g><path d="M41.302,36.12955856323242l15.588,-9l-1,-1.732L40.302,34.39751052856445l1,1.732Zm2,3.464l15.588,-9l-1,-1.732L42.302,37.861610412597656l1,1.732Zm-4,-6.928l15.588,-9L53.89,21.933406829833984L38.302,30.933406829833984l1,1.732Zm-3,-5.196l1,1.732l15.588,-9L51.89,18.46930503845215L36.302,27.46930503845215Z"></path><path d="M52.39,6.5310139656066895l0,18l2,0L54.39,6.531013488769531l-2,0Zm-4,0l0,18l2,0L50.39,6.531013488769531l-2,0Zm8,0l0,18L58.39,24.531482696533203L58.39,6.531013488769531l-2,0Zm6,0l-2,0l0,18L62.39,24.531482696533203L62.39,6.531010627746582Z"></path><path d="M72.478,30.933012008666992l-15.588,-9l-1,1.732L71.478,32.665061950683594l1,-1.732Zm2,-3.464l-15.588,-9l-1,1.732L73.478,29.200960159301758l1,-1.732Zm-4,6.928l-15.588,-9L53.89,27.129558563232422L69.478,36.1291618347168l1,-1.732Zm-3,5.196l1,-1.732l-15.588,-9L51.89,30.593660354614258L67.478,39.593265533447266Z"></path></g><g><path d="M38.301,37.067378997802734l15.589,9l1,-1.732L39.301,35.335330963134766l-1,1.732Zm-2,3.464l15.588,9l1,-1.732L37.301,38.79943084716797l-1,1.732Zm4,-6.928l15.588,9L56.89,40.8712272644043L41.301,31.871227264404297l-1,1.732Zm3,-5.196l-1,1.732l15.588,9L58.89,37.407127380371094L43.301,28.40712547302246Z"></path><path d="M69.478,31.870756149291992l-15.588,9l1,1.732L70.478,33.60280990600586l-1,-1.732Zm-2,-3.464l-15.588,9l1,1.732L68.478,30.13870620727539l-1,-1.732Zm4,6.928l-15.588,9L56.89,46.067378997802734L72.478,37.06690979003906l-1,-1.732Zm3,5.196l-1,-1.732l-15.588,9L58.89,49.5314826965332L74.478,40.531009674072266Z"></path><path d="M58.39,61.46890640258789l0,-18l-2,0L56.39,61.46890640258789l2,0Zm4,0l0,-18l-2,0L60.39,61.46890640258789l2,0Zm-8,0l0,-18L52.39,43.469303131103516L52.39,61.46890640258789l2,0Zm-6,0l2,0l0,-18L48.39,43.469303131103516L48.39,61.46890640258789Z"></path></g></g></symbol></defs><rect width="100%" height="100%" id="Pattern1006RctLayer1" fill="url(#Pattern1006Layer1)"></rect><rect width="100%" height="100%" id="Pattern1006RctLayer2" fill="url(#Pattern1006Layer2)"></rect></svg>